<?xml version="1.0" encoding="UTF-8" standalone="no"?>
<svg width="64px" height="64px" viewBox="0 0 64 64" version="1.1" xmlns="http://www.w3.org/2000/svg" xmlns:xlink="http://www.w3.org/1999/xlink">
    <!-- Generator: sketchtool 39.1 (31720) - http://www.bohemiancoding.com/sketch -->
    <title>42F170CD-C384-4CE3-AE12-D2D81757F603</title>
    <desc>Created with sketchtool.</desc>
    <defs></defs>
    <g id="Page-1" stroke="none" stroke-width="1" fill="none" fill-rule="evenodd">
        <g id="landing" transform="translate(-608.000000, -192.000000)" fill="#7C14CE">
            <path d="M654.222222,220.444444 C648.340622,220.444444 643.555556,215.659378 643.555556,209.777778 C643.555556,203.896178 648.340622,199.111111 654.222222,199.111111 C660.103822,199.111111 664.888889,203.896178 664.888889,209.777778 C664.888889,215.659378 660.103822,220.444444 654.222222,220.444444 M625.777778,220.444444 C619.896178,220.444444 615.111111,215.659378 615.111111,209.777778 C615.111111,203.896178 619.896178,199.111111 625.777778,199.111111 C631.659378,199.111111 636.444444,203.896178 636.444444,209.777778 C636.444444,215.659378 631.659378,220.444444 625.777778,220.444444 M654.222222,192 C648.4128,192 643.246222,194.801067 640,199.123556 C636.753778,194.801067 631.5872,192 625.777778,192 C615.975111,192 608,199.975111 608,209.777778 C608,219.580444 615.975111,227.555556 625.777778,227.555556 C631.659378,227.555556 636.444444,232.340622 636.444444,238.222222 C636.444444,244.103822 631.659378,248.888889 625.777778,248.888889 C619.896178,248.888889 615.111111,244.103822 615.111111,238.222222 C615.111111,236.258844 613.519289,234.666667 611.555556,234.666667 C609.591822,234.666667 608,236.258844 608,238.222222 C608,248.024889 615.975111,256 625.777778,256 C635.580444,256 643.555556,248.024889 643.555556,238.222222 C643.555556,232.4128 640.754489,227.246222 636.432,224 C637.783111,222.985244 638.985244,221.783111 640,220.432 C643.246222,224.754489 648.4128,227.555556 654.222222,227.555556 C664.024889,227.555556 672,219.580444 672,209.777778 C672,199.975111 664.024889,192 654.222222,192" id="Page-1"></path>
        </g>
    </g>
</svg>