<?xml version="1.0" encoding="UTF-8" standalone="no"?>
<svg width="24px" height="20px" viewBox="0 0 24 20" version="1.1" xmlns="http://www.w3.org/2000/svg" xmlns:xlink="http://www.w3.org/1999/xlink">
    <!-- Generator: sketchtool 39.1 (31720) - http://www.bohemiancoding.com/sketch -->
    <title>AE938B4B-7D9A-4E58-804D-160236C9E57E</title>
    <desc>Created with sketchtool.</desc>
    <defs></defs>
    <g id="Page-1" stroke="none" stroke-width="1" fill="none" fill-rule="evenodd">
        <g id="landing" transform="translate(-523.000000, -462.000000)">
            <g id="Group-2" transform="translate(519.000000, 456.000000)">
                <g id="Group">
                    <rect id="Rectangle" x="0" y="0" width="32" height="32"></rect>
                    <path d="M24.20925,7.59325 C23.31325,6.6125 22.03275,6 20.61575,6 C17.89825,6 15.69375,8.26075 15.69375,11.04875 C15.69375,11.4445 15.736,11.82875 15.8205,12.1985 C11.72825,11.98775 8.10075,9.97975 5.67075,6.9215 C5.24675,7.67 5.0045,8.538 5.0045,9.4625 C5.0045,11.2135 5.87375,12.759 7.195,13.66475 C6.38925,13.64025 5.6285,13.4105 4.96375,13.035 L4.96375,13.097 C4.96375,15.54425 6.661,17.5855 8.915,18.04775 C8.50225,18.166 8.067,18.22525 7.6175,18.22525 C7.30075,18.22525 6.99075,18.195 6.69075,18.13575 C7.3175,20.14075 9.13475,21.60125 11.29,21.64025 C9.60525,22.99525 7.481,23.80275 5.175,23.80275 C4.77775,23.80275 4.38475,23.7795 4,23.7335 C6.17925,25.1635 8.7685,26 11.548,26 C20.60575,26 25.5575,18.3075 25.5575,11.63525 C25.5575,11.4155 25.55325,11.196 25.54475,10.98075 C26.50675,10.2685 27.34225,9.38025 28,8.3675 C27.11825,8.76925 26.16875,9.04075 25.17275,9.162 C26.19,8.538 26.97025,7.5485 27.338,6.36975 C26.38575,6.9475 25.3335,7.368 24.20925,7.59325 Z" id="icon-twitter" fill="#FFFFFF"></path>
                </g>
            </g>
        </g>
    </g>
</svg>