<svg width="64" height="64" viewBox="0 0 64 64" xmlns="http://www.w3.org/2000/svg"><title>42F170CD-C384-4CE3-AE12-D2D81757F603</title><path d="M46.222 28.444c-5.881 0-10.666-4.785-10.666-10.666 0-5.882 4.785-10.667 10.666-10.667 5.882 0 10.667 4.785 10.667 10.667 0 5.881-4.785 10.666-10.667 10.666m-28.444 0c-5.882 0-10.667-4.785-10.667-10.666 0-5.882 4.785-10.667 10.667-10.667 5.881 0 10.666 4.785 10.666 10.667 0 5.881-4.785 10.666-10.666 10.666M46.222 0C40.412 0 35.246 2.801 32 7.124 28.754 2.8 23.587 0 17.778 0 7.975 0 0 7.975 0 17.778c0 9.802 7.975 17.778 17.778 17.778 5.881 0 10.666 4.785 10.666 10.666 0 5.882-4.785 10.667-10.666 10.667-5.882 0-10.667-4.785-10.667-10.667a3.556 3.556 0 0 0-7.111 0C0 56.025 7.975 64 17.778 64c9.802 0 17.778-7.975 17.778-17.778 0-5.81-2.802-10.976-7.124-14.222A17.931 17.931 0 0 0 32 28.432c3.246 4.322 8.413 7.124 14.222 7.124C56.025 35.556 64 27.58 64 17.778 64 7.975 56.025 0 46.222 0" fill="#7C14CE" fill-rule="evenodd"/></svg>