<svg width="24" height="20" viewBox="0 0 24 20" xmlns="http://www.w3.org/2000/svg"><title>AE938B4B-7D9A-4E58-804D-160236C9E57E</title><g fill="none" fill-rule="evenodd"><path d="M-4-6h32v32H-4z"/><path d="M20.21 1.593A4.856 4.856 0 0 0 16.615 0c-2.718 0-4.922 2.26-4.922 5.049 0 .395.042.78.126 1.15C7.728 5.987 4.1 3.978 1.67.921a5.142 5.142 0 0 0-.665 2.54c0 1.751.869 3.297 2.19 4.203a4.834 4.834 0 0 1-2.231-.63v.062c0 2.447 1.697 4.488 3.951 4.95a4.703 4.703 0 0 1-1.298.178 4.78 4.78 0 0 1-.926-.09c.627 2.006 2.444 3.466 4.599 3.505A9.722 9.722 0 0 1 0 17.733 13.71 13.71 0 0 0 7.548 20c9.058 0 14.01-7.692 14.01-14.365 0-.22-.005-.439-.013-.654.962-.713 1.797-1.6 2.455-2.614a9.608 9.608 0 0 1-2.827.795A5.037 5.037 0 0 0 23.338.37a9.696 9.696 0 0 1-3.129 1.223z" fill="#FFF"/></g></svg>